<?xml version="1.0" encoding="UTF-8" standalone="no"?>
<!-- Created with Inkscape (http://www.inkscape.org/) -->

<svg
   xmlns:dc="http://purl.org/dc/elements/1.1/"
   xmlns:cc="http://creativecommons.org/ns#"
   xmlns:rdf="http://www.w3.org/1999/02/22-rdf-syntax-ns#"
   xmlns:svg="http://www.w3.org/2000/svg"
   xmlns="http://www.w3.org/2000/svg"
   xmlns:sodipodi="http://sodipodi.sourceforge.net/DTD/sodipodi-0.dtd"
   xmlns:inkscape="http://www.inkscape.org/namespaces/inkscape"
   width="744.09448819"
   height="1052.3622047"
   id="svg2"
   version="1.1"
   inkscape:version="0.48.5 r10040"
   sodipodi:docname="upaple 2.svg">
  <defs
     id="defs4" />
  <sodipodi:namedview
     id="base"
     pagecolor="#ffffff"
     bordercolor="#666666"
     borderopacity="1.0"
     inkscape:pageopacity="0.0"
     inkscape:pageshadow="2"
     inkscape:zoom="0.1567626"
     inkscape:cx="-110.15465"
     inkscape:cy="720.23114"
     inkscape:document-units="px"
     inkscape:current-layer="layer1"
     showgrid="false"
     inkscape:window-width="1280"
     inkscape:window-height="751"
     inkscape:window-x="0"
     inkscape:window-y="0"
     inkscape:window-maximized="1" />
  <metadata
     id="metadata7">
    <rdf:RDF>
      <cc:Work
         rdf:about="">
        <dc:format>image/svg+xml</dc:format>
        <dc:type
           rdf:resource="http://purl.org/dc/dcmitype/StillImage" />
        <dc:title />
      </cc:Work>
    </rdf:RDF>
  </metadata>
  <g
     inkscape:label="Layer 1"
     inkscape:groupmode="layer"
     id="layer1">
    <g
       id="g4215"
       inkscape:export-filename="/Users/giriputra/design/logoUPI/logoUPI_darker.png"
       inkscape:export-xdpi="153.7085"
       inkscape:export-ydpi="153.7085"
       transform="translate(1052.547,-172.23496)">
      <path
         inkscape:export-ydpi="68"
         inkscape:export-xdpi="68"
         inkscape:export-filename="/Users/giriputra/design/logoUPI/logo_upi.png"
         transform="matrix(1.0784038,0,0,1.0784038,-119.16448,-198.48572)"
         d="m -196.71716,803.87738 c 0,176.30804 -142.92591,319.23392 -319.23395,319.23392 -176.30804,0 -319.23395,-142.92588 -319.23395,-319.23392 0,-176.30804 142.92591,-319.23395 319.23395,-319.23395 176.30804,0 319.23395,142.92591 319.23395,319.23395 z"
         sodipodi:ry="319.23395"
         sodipodi:rx="319.23395"
         sodipodi:cy="803.87738"
         sodipodi:cx="-515.95111"
         id="path3000"
         style="fill:#ffffff;fill-opacity:1;stroke:none"
         sodipodi:type="arc" />
      <path
         inkscape:export-ydpi="68"
         inkscape:export-xdpi="68"
         inkscape:export-filename="/Users/giriputra/design/logoUPI/logo_upi.png"
         sodipodi:nodetypes="cccccccc"
         inkscape:connector-curvature="0"
         id="path3798"
         d="m -676.46386,324.12282 c -152.20573,0.0135 -281.38587,98.59814 -327.15624,235.40623 76.57634,9.5959 212.53123,19.0415 327.15624,118.5625 100.90934,-81.4272 221.559,-109.8191 328.59375,-118.5625 -45.77037,-136.80805 -174.95058,-235.39266 -327.15625,-235.40623 -0.0105,-4e-5 -0.0208,4e-5 -0.0312,0 -0.47161,0 -0.93508,-0.002 -1.40625,0 z"
         style="fill:#f90304;fill-opacity:1;stroke:none" />
      <path
         inkscape:export-ydpi="68"
         inkscape:export-xdpi="68"
         inkscape:export-filename="/Users/giriputra/design/logoUPI/logo_upi.png"
         sodipodi:nodetypes="ccccccccccc"
         inkscape:connector-curvature="0"
         id="path3792"
         d="m -751.68261,330.32126 c -7.16119,19.9694 -28.34375,79.84375 -28.34375,79.84375 52.41017,26.89965 59.98706,96.54074 63.59375,177.87504 l 27.84375,0 0,-105.71879 c 9.05208,0 18.10417,0 27.15625,0 l 0,105.71879 27.84375,0 c 3.60669,-81.3343 11.18358,-150.97539 63.59375,-177.87504 0,0 -21.18256,-59.87435 -28.34375,-79.84375 -52.37887,-10.4434 -101.94268,-11.21202 -153.34375,0 z"
         style="fill:#ffffff;fill-opacity:1;stroke:none" />
      <path
         inkscape:export-ydpi="68"
         inkscape:export-xdpi="68"
         inkscape:export-filename="/Users/giriputra/design/logoUPI/logo_upi.png"
         transform="matrix(0.78583196,0,0,0.78583196,-114.37258,106.41199)"
         d="m -667.85715,380.93362 c 0,23.66935 -19.1878,42.85715 -42.85714,42.85715 -23.66935,0 -42.85715,-19.1878 -42.85715,-42.85715 0,-23.66934 19.1878,-42.85714 42.85715,-42.85714 23.66934,0 42.85714,19.1878 42.85714,42.85714 z"
         sodipodi:ry="42.857143"
         sodipodi:rx="42.857143"
         sodipodi:cy="380.93362"
         sodipodi:cx="-710.71429"
         id="path3794"
         style="fill:#fbd006;fill-opacity:1;stroke:none"
         sodipodi:type="arc" />
      <path
         inkscape:export-filename="/Users/giriputra/design/logoUPI/logo_upi.png"
         inkscape:export-ydpi="68"
         inkscape:export-xdpi="68"
         id="path3808"
         d="m -1020.3388,642.16115 c -0.6839,8.8714 -1.0313,17.8596 -1.0313,26.9063 0,81.4125 28.20324,156.2203 75.37503,215.2187 57.18103,-74.4341 144.54221,-124.4941 243.78125,-131.8437 -91.51058,-71.3286 -219.29412,-109.3095 -318.12498,-110.2813 z m 687.53123,0 c -98.84334,0.9721 -226.64328,38.9663 -318.15625,110.3126 99.19295,7.4738 186.46977,57.6329 243.5625,132.125 47.32217,-59.047 75.625,-133.975 75.625,-215.5313 0,-9.0467 -0.34738,-18.0349 -1.03125,-26.9063 z m -359.15625,137.9376 c -2.87186,0.1376 -5.74285,0.316 -8.59375,0.5312 -0.0616,0.01 -0.12595,-0.01 -0.1875,0 -79.91444,9.8364 -152.65494,37.7164 -221.5,119.125 -1.61485,2.0728 -3.21823,4.167 -4.78125,6.2812 12.55137,13.2674 26.15175,25.543 40.65625,36.6876 43.73405,-61.8176 114.09574,-103.4175 194.40625,-108.0938 l 0,-54.5312 z m 30.78125,0 0,54.5624 c 80.21143,4.8168 150.47904,46.4635 194.125,108.2813 14.51667,-11.1306 28.12205,-23.4013 40.6875,-36.6563 -3.32789,-4.51 -6.78264,-8.9305 -10.34375,-13.25 -0.0344,-0.039 -0.0593,-0.086 -0.0937,-0.125 -66.95436,-75.9797 -137.65592,-102.6106 -215.09375,-112.2187 -3.07807,-0.2438 -6.17861,-0.4404 -9.28125,-0.5937 z m -30.71875,86.8437 c -69.36028,4.6124 -130.12372,40.7555 -168.03125,94.2187 17.35974,10.9253 35.77021,20.3585 55.03125,28.0938 26.68623,-36.0526 67.23323,-60.4964 113.40625,-64.8125 l -0.40625,-57.5 z m 30.65625,0.031 -0.40625,57.5 c 46.0397,4.4423 86.46739,28.8982 113.0625,64.9062 19.25534,-7.709 37.67183,-17.1037 55.03125,-28 -37.81238,-53.4556 -98.43348,-89.6567 -167.6875,-94.4062 z m -27.6875,87.2812 c -26.96275,2.5363 -51.58597,13.4399 -71.4375,30.1875 -3.96182,3.5413 -7.77156,7.1958 -11.5,10.9063 -0.25743,0.2749 -0.52603,0.5353 -0.78125,0.8124 -1.00909,1.0959 -1.99481,2.2139 -2.96875,3.3438 27.59892,8.27105 56.65748,13.18085 86.6875,14.24995 l 0,-59.49995 z m 24.71875,0.031 0,59.46875 c 29.89318,-1.0642 58.8261,-5.9223 86.3125,-14.12495 -21.63217,-25.155 -52.07226,-41.9965 -86.3125,-45.3438 z"
         style="fill:#000000;stroke:none"
         inkscape:connector-curvature="0" />
    </g>
  </g>
</svg>
